PathFileType	4	(X/Y/Z)	Patient4_TMGait_0pt2_03_left_08.trc.trc
DataRate	CameraRate	NumFrames	NumMarkers	Units	OrigDataRate	OrigDataStartFrame	OrigNumFrames
47.138047138047	47.138047138047	7	33	mm	47.138047138047	89	       141
Frame#	Time	Sacral			L.Shoulder			Chest			R.Shoulder			Neck			R.ASIS			L.ASIS			R.Thigh.Superior			R.Thigh.Lateral			R.Thigh.Inferior			R.Patella			L.Thigh.Superior			L.Thigh.Lateral			L.Thigh.Inferior			L.Patella			L.Shank.Superior			L.Shank.Lateral			L.Shank.Inferior			R.Shank.Superior			R.Shank.Lateral			R.Shank.Inferior			R.Heel			R.Midfoot.Superior			R.Midfoot.Lateral			R.Toe			L.Heel			L.Midfoot.Lateral			L.Midfoot.Superior			L.Toe			L.Elbow			L.Wrist			R.Elbow			R.Wrist			
		X1	Y1	Z1	X2	Y2	Z2	X3	Y3	Z3	X4	Y4	Z4	X5	Y5	Z5	X6	Y6	Z6	X7	Y7	Z7	X8	Y8	Z8	X9	Y9	Z9	X10	Y10	Z10	X11	Y11	Z11	X12	Y12	Z12	X13	Y13	Z13	X14	Y14	Z14	X15	Y15	Z15	X16	Y16	Z16	X17	Y17	Z17	X18	Y18	Z18	X19	Y19	Z19	X20	Y20	Z20	X21	Y21	Z21	X22	Y22	Z22	X23	Y23	Z23	X24	Y24	Z24	X25	Y25	Z25	X26	Y26	Z26	X27	Y27	Z27	X28	Y28	Z28	X29	Y29	Z29	X30	Y30	Z30	X31	Y31	Z31	X32	Y32	Z32	X33	Y33	Z33	

89	17.826857142857	765.444951055066	1019.210435205374	526.409133089516	967.832357110659	1436.969977320806	356.425162342657	1047.666117181898	1374.784888172994	530.173270027935	944.141409567652	1453.254359100434	690.285612540093	918.250146046417	1502.567255509033	508.752849476851	981.641432038985	948.751907063719	666.253035750781	992.794254765171	967.310982425322	392.200581526313	1014.846168926325	741.661447901589	631.173676103104	927.884116787087	636.062962533677	690.358258196702	1000.757686072079	580.781605006234	609.001529092159	997.621750649503	497.103140644877	613.857446185169	1000.538303232615	737.940412734992	404.610728043380	896.367279786427	642.066995603251	324.289247409100	965.442036632041	547.376494718013	380.207593009185	956.736097568768	476.869742993691	379.470080478098	912.671433630128	414.805092924886	364.990045515644	800.692657577805	328.272008790638	302.275710582658	827.067434346693	200.083338428138	357.037009295772	971.396946403057	408.608037485761	621.746195623847	903.546593284735	305.597893127267	688.338083991424	941.647480393813	209.852653437964	622.925985900412	804.058557196267	45.519392727668	605.808388494335	978.957677182964	97.433795499331	627.537686754857	893.553588248932	38.543567881770	672.560670499986	1100.386512540058	42.136191297467	645.290562480716	671.681342486709	63.760067367670	380.536960504057	748.622113877257	48.640899820363	305.056059126616	837.654842890161	100.213552669745	334.084143206532	958.689393983017	37.733362688920	312.316783171890	1004.529150924736	1082.390310341235	243.004268805431	1223.394338663199	947.010425006797	262.585691634074	838.731875556967	1125.242902341350	815.460942180410	862.144607098792	866.236711746465	844.190379452497	
90	17.848071428571	764.789611476799	1019.110501827223	533.301903736655	965.607533032314	1436.431508093201	360.491517784550	1047.668099923008	1374.260814820637	533.339597744358	946.320450330251	1452.843929326604	694.735139161989	918.238968839056	1502.436005385975	513.280478675974	982.496940145181	948.426065091133	670.672910197427	990.491270995808	967.301759780355	396.533324756584	1014.979993555513	741.382490245863	634.482451808121	928.298324266523	635.474195303091	693.708144926731	1000.591743698613	580.432734494301	611.725137170404	997.233248139831	496.259967728614	616.248847208417	1002.454601066671	739.246891706631	408.368827438215	900.288826657742	642.089132574301	327.778931855765	971.732702898880	547.972277104654	382.571053761223	964.143094505174	476.092673495075	380.549600023546	917.767948244463	414.390601826113	366.340621377956	803.357376804391	330.911493000792	303.833388553845	827.362532592353	201.696469266117	357.017432758636	970.201600451696	407.962903906578	623.599223079780	901.645670397910	305.050749127457	689.535781883874	938.732790951405	209.445761404218	623.526928636384	799.836547375470	45.683477543931	605.746879423893	974.755704161524	97.317128135366	627.501721411924	889.312418565531	38.593625863631	672.490989587548	1096.168448244375	41.730695729132	645.374491826310	668.984561903953	69.032465720549	380.030403816121	745.477671460872	51.509849612137	304.738574092695	835.753710649486	101.074843956221	333.431982854389	954.748810669364	37.437864103862	312.309849551458	991.530147519780	1079.522355258046	249.789221594839	1195.686983335654	923.533305120202	269.379064906594	850.787086785434	1121.572573653340	822.127922369124	882.998106832786	863.599042610028	851.589731380412	
91	17.869285714286	763.899640103992	1018.713281135393	540.125795456870	963.112121512245	1435.734299498800	364.555704932139	1047.408800209107	1373.447203740016	536.419302484849	948.341289830397	1452.094777945208	699.145021852778	917.994814699861	1502.037058575777	517.830254301117	983.150263309236	947.885647291214	674.898873521326	987.809943374898	967.069108262631	400.720081402942	1015.146227950349	740.976757428810	637.602887890742	928.924540319660	634.661783307298	696.876940881926	1000.670331435939	579.964499572608	614.247582354232	997.212067112456	495.187005971403	618.497583326127	1004.637942639460	740.704092831570	412.128637185032	904.747980665139	641.879453118273	331.202720287664	978.980922806150	548.742156382238	384.930968538164	972.513811151049	475.393278471283	381.523704934047	923.832371098859	413.997731117170	367.589741431760	806.941025690273	333.858538041984	305.334928834214	828.291522200471	203.657035904367	356.958184103189	969.218591043904	407.095025426539	625.353784325469	899.856778927060	304.362363565222	690.675342798067	935.824908028005	208.882222091441	624.105260989573	795.560579274261	45.734306211879	605.703507791628	970.479990484610	97.191769923359	627.477232524391	885.014339966725	38.586167431052	672.463026823677	1091.890955526098	41.445626485711	645.441366102445	666.731309314795	75.310193207553	379.542774985280	742.598324512449	55.103734659145	304.432177879627	834.240769765094	102.196243322321	332.784823142108	950.771343800578	37.078367381400	312.362959977725	978.372627405256	1077.072201213992	256.385090531769	1165.462456278702	901.420968959380	275.893820604615	863.494253577870	1117.589654074980	828.520728270028	905.262953789658	861.061737005497	858.503861533453	
92	17.890500000000	762.755258007297	1017.957261723548	546.914759881878	960.327204541269	1434.822729545306	368.595053509964	1046.879356544106	1372.287677453999	539.377707052259	950.216222785971	1450.953585845703	703.484697271980	917.521546113902	1501.312434743172	522.377585001818	983.609147581432	947.093773568893	678.922016573132	984.721822791665	966.549038202112	404.756486127879	1015.411046794602	740.434340904080	640.488039878156	929.901032813268	633.585577693052	699.838343523163	1001.112815943353	579.362931592476	616.507206881951	997.716532600018	493.854083543523	620.537096244693	1007.023296637451	742.334934029090	415.854383724775	909.587471162070	641.427059906926	334.594254089583	987.152128777669	549.757924501937	387.289268988473	981.848392576744	474.860497332233	382.434096977212	930.895138961115	413.689524958042	368.769129047279	811.478394209930	337.186152607822	306.838512463746	829.904867689288	206.054839458142	356.928033006885	968.574384838308	405.971344531232	626.951849011763	898.314915352683	303.525197390646	691.747282626731	932.990874298303	208.149588727272	624.631267582871	791.249763178608	45.684376196164	605.688576069976	966.157109952739	97.062597191359	627.469393812560	880.677739133160	38.528880995484	672.479914699974	1087.576397135463	41.264932706371	645.497346338191	665.016197984501	82.740946298617	379.177453138601	740.034224053309	59.590332384428	304.216468421857	833.147873001521	103.688468025551	332.218027263930	946.748304822267	36.618929369490	312.483710633317	965.045866040089	1074.993975018894	262.735963751250	1133.112172521156	881.139594912058	282.012102108299	876.822778394193	1113.333129687218	834.587464887520	928.967051243415	858.773663771670	864.832550408230	
93	17.911714285714	761.343744492136	1016.788531013627	553.696510172712	957.234813571177	1433.639082395916	372.581298576095	1046.077609390805	1370.730389190298	542.173660046402	951.971365299666	1449.380586619745	707.714349857088	916.833500932118	1500.211244930609	526.889081422304	983.879957463015	946.011202338927	682.730379333824	981.214950921436	965.688646452018	408.636765923047	1015.845669733123	739.749587634671	643.093096948589	931.361409790239	632.209028385274	702.559411984196	1002.046870887187	578.617651237121	618.444412012166	998.905428699191	492.240360233666	622.299669508826	1009.527159551651	744.156065446991	419.506767178826	914.632240865202	640.738402223409	337.976238892795	996.166075037718	551.093865678282	389.645270824846	992.108877030273	474.591474847638	383.323702489562	938.942079058560	413.536516667997	369.914553792670	816.965129745661	340.955058217188	308.411153118390	832.229443349825	208.969773138803	357.011072533364	968.400808642417	404.566781755941	628.332970864281	897.153121039463	302.541080163898	692.733355668579	930.303186226894	207.244802430180	625.074761594324	786.924592685481	45.561105685934	605.707343536105	961.817615744980	96.935733848924	627.481674879954	876.322198754586	38.435407989327	672.538431929847	1083.246148158824	41.162309824739	645.547404428560	663.927703972557	91.417074185866	379.067939536916	737.832999588248	65.107894210195	304.192228160827	832.495794090393	105.668032504838	331.818716948966	942.684908931048	36.035789004756	312.670271299458	951.489858692137	1073.233587137908	268.780379111947	1099.164594669071	863.084055724910	287.634350959437	890.741817003387	1108.870633990740	840.279751250884	954.118286652437	856.931012883634	870.472464531527	
94	17.932928571429	759.664957340477	1015.165316100970	560.484716362381	953.817258095629	1432.133947953479	376.486709580657	1045.005607159225	1368.735757337641	544.765450245101	953.638899138694	1447.351232600514	711.790995325197	915.950116181605	1498.695794774543	531.330267437542	983.971265955827	944.602658592952	686.307515111811	977.299475769636	964.452244894134	412.350755442462	1016.517472941524	738.919385475475	645.380777133836	933.412363577673	630.505026931878	705.003014735522	1003.585497400135	577.720961419073	620.006926975133	1000.908182313149	490.337481447349	623.719008725034	1012.057670320962	746.171377425931	423.050408761746	919.721530082493	639.842160588408	341.349458838687	1005.893804924384	552.814799549146	391.998233471620	1003.205743000762	474.678860653770	384.232394954995	947.902900551301	413.607829125900	371.061387839647	823.346342067782	345.198530645046	310.121830761825	835.260767921523	212.453358457539	357.298993310719	968.812098834493	402.868138515470	629.438511275404	896.483514875733	301.421049472723	693.608712423997	927.828734269171	206.174590687146	625.407945436594	782.605074320445	45.401835571981	605.760989686331	957.492568187285	96.818098741678	627.516049514077	871.967245453782	38.323074258020	672.630703427511	1078.919325303428	41.105935782466	645.595191142255	663.538797897188	101.336766927740	379.368295226689	736.038009676405	71.731058986910	304.473094430504	832.293653092018	108.238323370671	331.675887127601	938.610969273964	35.328062768515	312.906579387565	937.610634584682	1071.739315359007	274.456296401235	1064.262350928345	847.545056050837	292.692978861931	905.222340558098	1104.294822873435	845.558961304263	980.702073700253	855.772410245335	875.324698335530	
95	17.954142857143	757.735590096691	1013.063879714183	567.273231119253	950.056723611190	1430.277154087210	380.289441421559	1043.667048066327	1366.285613398013	547.116373751987	955.248693895547	1444.858937845012	715.674547629865	914.889797882488	1496.748287417050	535.672562749479	983.897871330307	942.844802214943	689.632102110814	973.009362222867	962.826873675248	415.882415057823	1017.477014611294	737.941502408188	647.324722509333	936.109942597884	628.462166960398	707.131779283956	1005.798634899287	576.667756512607	621.154457709533	1003.791036713411	488.152609413182	624.734050658806	1014.523595000268	748.367405244171	426.458827085847	924.741964297279	638.794066787028	344.682418386301	1016.156974676505	554.963662140547	394.348134131611	1014.987962379719	475.197492842929	385.190874330662	957.643964260937	413.961553625689	372.238432574690	830.509343161334	349.907380409064	312.032307073049	838.959436941937	216.509887244032	357.878999746505	969.878099752257	400.877778215021	630.216722947377	896.376471406382	300.183925655103	694.345129895273	925.615775733403	204.954942782030	625.608141247290	778.308547983909	45.246561814070	605.847869230268	953.209118698360	96.716230417934	627.572691768533	867.630618075039	38.209688218160	672.746532098240	1074.611550546075	41.063828147406	645.643004963175	663.899753662234	112.368090391284	380.235624639409	734.689628666084	79.436782668446	305.171109625590	832.542592781102	111.466355454069	331.866876892247	934.594514211575	34.527024869979	313.157447925906	923.309431686544	1070.470281324130	279.709262866549	1029.124038868276	834.683283348648	297.165998147084	920.236531687087	1099.719181461209	850.397525928467	1008.675456279089	855.571713065144	879.299738491024	
